<svg width="411" height="486" viewBox="0 0 411 486" fill="none" xmlns="http://www.w3.org/2000/svg">
<g filter="url(#filter0_d)">
<path fill-rule="evenodd" clip-rule="evenodd" d="M29 30H381L381 30.0001H345.8H310.6L328.2 44.9395L345.8 30.0001L363.4 44.9395L381 30.0001V435.837L363.4 420.897L345.8 435.837H381L381 436H29V435.837H64.2H99.4L81.8 420.897L64.2 435.837L46.6 420.897L29 435.837V30.0003L46.5998 44.9395L64.1998 30.0001H29V30ZM64.1998 30.0001L81.7998 44.9395L99.3998 30.0001L117 44.9395L134.6 30.0001H99.3998H64.1998ZM134.6 30.0001L152.2 44.9395L169.8 30.0001L187.4 44.9395L205 30.0001L222.6 44.9395L240.2 30.0001H205H169.8H134.6ZM257.8 44.9395L240.2 30.0001H275.4L257.8 44.9395ZM275.4 30.0001L293 44.9395L310.6 30.0001H275.4ZM328.2 420.897L345.8 435.837H310.6L328.2 420.897ZM310.6 435.837H275.4L293 420.897L310.6 435.837ZM257.8 420.897L275.4 435.837H240.2L257.8 420.897ZM205 435.837L222.6 420.897L240.2 435.837H205ZM205 435.837H169.8L187.4 420.897L205 435.837ZM169.8 435.837L152.2 420.897L134.6 435.837L117 420.897L99.4 435.837H134.6H169.8Z" fill="white"/>
</g>
<defs>
<filter id="filter0_d" x="-11" y="0" width="432" height="486" filterUnits="userSpaceOnUse" color-interpolation-filters="sRGB">
<feFlood flood-opacity="0" result="BackgroundImageFix"/>
<feColorMatrix in="SourceAlpha" type="matrix" values="0 0 0 0 0 0 0 0 0 0 0 0 0 0 0 0 0 0 127 0"/>
<feOffset dy="10"/>
<feGaussianBlur stdDeviation="20"/>
<feColorMatrix type="matrix" values="0 0 0 0 0 0 0 0 0 0 0 0 0 0 0 0 0 0 0.1 0"/>
<feBlend mode="normal" in2="BackgroundImageFix" result="effect1_dropShadow"/>
<feBlend mode="normal" in="SourceGraphic" in2="effect1_dropShadow" result="shape"/>
</filter>
</defs>
</svg>
